<svg xmlns="http://www.w3.org/2000/svg" width="20" height="20" fill="none"><path fill="#163A34" d="M7.222 2.097a.625.625 0 10-.884.884.37.37 0 010 .524 1.621 1.621 0 000 2.293.625.625 0 10.883-.884.37.37 0 010-.525 1.62 1.62 0 000-2.292zm8.239 2.809a.625.625 0 10-.883-.884 1.62 1.62 0 000 2.293.625.625 0 00.883-.885.37.37 0 010-.524zM3.503 5.43a.625.625 0 00-.884.884.37.37 0 010 .524.625.625 0 00.884.885 1.62 1.62 0 000-2.293z"/><path fill="#163A34" fill-rule="evenodd" d="M10 5.218c-.955 0-1.727.774-1.727 1.728v.568c-3.156.669-5.525 3.129-5.347 6.095.013.22.195.392.416.392h13.316c.22 0 .403-.172.416-.392.178-2.966-2.192-5.426-5.347-6.095v-.568c0-.954-.774-1.728-1.727-1.728zm.477 2.13v-.402a.478.478 0 10-.954 0v.401a8.45 8.45 0 01.954 0z" clip-rule="evenodd"/><path fill="#163A34" d="M2.332 15.07a.915.915 0 01.585-.188h14.166c.21 0 .417.053.585.188a.84.84 0 01.29.488c.07.32-.01.684-.106.972a1.974 1.974 0 01-1.872 1.349H4.02a1.973 1.973 0 01-1.872-1.349c-.096-.288-.175-.651-.106-.972a.84.84 0 01.29-.488z"/></svg>